<?xml version="1.0" encoding="UTF-8"?>
<svg id="Layer_1" data-name="Layer 1" xmlns="http://www.w3.org/2000/svg" xmlns:xlink="http://www.w3.org/1999/xlink" viewBox="0 0 15.69 17.49">
  <defs>
    <linearGradient id="linear-gradient" x1="300.44" y1="-351.88" x2="307.25" y2="-351.88" gradientTransform="translate(-296 -348.51) scale(1 -1)" gradientUnits="userSpaceOnUse">
      <stop offset="0" stop-color="#007a4e"/>
      <stop offset="1" stop-color="#2dd36f"/>
    </linearGradient>
    <linearGradient id="linear-gradient-2" x1="300.44" y1="-351.88" x2="307.25" y2="-351.88" gradientTransform="translate(-296 -348.51) scale(1 -1)" gradientUnits="userSpaceOnUse">
      <stop offset="0" stop-color="#fff"/>
      <stop offset="0" stop-color="#2bce6d" stop-opacity=".94"/>
      <stop offset="1" stop-color="#007a4e" stop-opacity="0"/>
      <stop offset="1" stop-color="#2dd36f"/>
    </linearGradient>
    <linearGradient id="linear-gradient-3" x1="296" y1="-358.66" x2="311.69" y2="-358.66" gradientTransform="translate(-296 -348.51) scale(1 -1)" gradientUnits="userSpaceOnUse">
      <stop offset="0" stop-color="#009058"/>
      <stop offset="1" stop-color="#00d47b"/>
    </linearGradient>
  </defs>
  <g>
    <path d="M8.07,0h-.45c-1.75,0-3.18,1.51-3.18,3.38v1.49c0,.69.19,1.33.52,1.86-.09-.31-.14-.63-.14-.97l.42-1.86c0-1.76.92-3.19,2.58-3.19h.07c1.66,0,2.65,1.43,2.65,3.19l.35,1.86c0,.3-.04.59-.11.87.29-.51.46-1.11.46-1.76v-1.49c0-1.87-1.42-3.38-3.18-3.38Z" fill="url(#linear-gradient)"/>
    <path d="M8.07,0h-.45c-1.75,0-3.18,1.51-3.18,3.38v1.49c0,.69.19,1.33.52,1.86-.09-.31-.14-.63-.14-.97l.42-1.86c0-1.76.92-3.19,2.58-3.19h.07c1.66,0,2.65,1.43,2.65,3.19l.35,1.86c0,.3-.04.59-.11.87.29-.51.46-1.11.46-1.76v-1.49c0-1.87-1.42-3.38-3.18-3.38h0Z" fill="url(#linear-gradient-2)"/>
  </g>
  <path d="M13.73,17.49H1.96C.81,17.49-.1,16.49,0,15.34L1.12,3.44c.03-.36.34-.64.7-.64h12.17c.36,0,.67.28.7.64l1,11.92c.1,1.14-.81,2.13-1.96,2.13h0Z" fill="url(#linear-gradient-3)"/>
  <path d="M12.92,5.02c-.55-.55-1.3-.88-2.13-.88H2.87c-.18,0-.34.14-.36.32l-.19,1.77-.43,3.89v.05s1.1,0,1.1,0l.14-1.14v-.02s.28-2.12.28-2.12v-.08s.22-1.63.22-1.63c.02-.12.12-.21.24-.21h6.76c1.12,0,2.04.91,2.04,2.04s-.91,2.03-2.03,2.03h-4.76l-.87,1.14h5.78c1.66,0,3.01-1.35,3.01-3.01,0-.83-.34-1.59-.88-2.13h0Z" fill="#fff"/>
  <path d="M7.24,10.16h-1.1l-3.93,5.67c-.36.41-.96.06-.9-.54l.57-5.14v-.05s.43-3.89.43-3.89l1.09.65-.28,2.12v.02s-.14,1.14-.14,1.14l-.38,3.12,2.39-3.12.87-1.14h0s1.2,0,1.2,0c.33.2.42.84.15,1.14h0Z" fill="#fff"/>
</svg>